# xmcd
#
# Track frame offsets:
#	150
#	12726
#	25220
#	36239
#	46993
#	59642
#	74275
#	86446
#	99173
#	113497
#	125446
#	136621
#	147485
#	161797
#	173926
#	183530
#	193496
#	202930
#
# Disc length: 2843 seconds
#
# Revision: 0
# Processed by: cddbd v1.4PL0 Copyright (c) Steve Scherf et al.
# Submitted via: EasyCDDAExtractor 4.6.9.1
#
DISCID=040b1912
DTITLE=Slim Whitman - Rose Marie CD 6
DYEAR=1996
DGENRE=Country
TTITLE0=Twilla Lee(1960)
TTITLE1=Roll River Roll(1960)
TTITLE2=Rose Marie(1960)
TTITLE3=Indian Love Call(1959)
TTITLE4=Amateur In Love(1996)
TTITLE5=Song Of The Old Water Wheel(Water Effect)(1960)
TTITLE6=All That I'm Asking Is Sympathy(1996)
TTITLE7=How Can I Tell You(1996)
TTITLE8=Danny Boy(1962)
TTITLE9=Warm, Warm Lips(1987)
TTITLE10=Ride Away(1963)
TTITLE11=Rose Marie(1987)
TTITLE12=Haunted Hungry Heart(1987)
TTITLE13=At The Close Of A Long, Long Day(1996)
TTITLE14=Unchain My Heart(1996)
TTITLE15=Tormented(1996)
TTITLE16=Candy Kisses(1996)
TTITLE17=Hush-A-Bye(1996)
EXTD=
EXTT0=
EXTT1=
EXTT2=
EXTT3=
EXTT4=
EXTT5=
EXTT6=
EXTT7=
EXTT8=
EXTT9=
EXTT10=
EXTT11=
EXTT12=
EXTT13=
EXTT14=
EXTT15=
EXTT16=
EXTT17=
PLAYORDER=
